<svg xmlns="http://www.w3.org/2000/svg" viewBox="0 0 530.757 189.907"><defs><style>.a{fill:#231f20;}.b{fill:#395a2a;}</style></defs><path class="a" d="M213.908,86.958A57.9,57.9,0,0,1,197.683,84.7a37.8,37.8,0,0,1-12.507-5.877L190.7,66.564a38.51,38.51,0,0,0,10.649,5.274A39.773,39.773,0,0,0,213.908,73.9a24.832,24.832,0,0,0,7.786-1,9.658,9.658,0,0,0,4.369-2.662,5.8,5.8,0,0,0,1.407-3.868,5.3,5.3,0,0,0-2.21-4.47,18.125,18.125,0,0,0-5.877-2.713q-3.669-1.055-7.987-2.009t-8.69-2.311a35.042,35.042,0,0,1-8.036-3.616,16.991,16.991,0,0,1-5.827-5.928,17.85,17.85,0,0,1-2.16-9.191,19.828,19.828,0,0,1,3.215-11,21.985,21.985,0,0,1,9.8-7.936q6.577-2.962,16.526-2.964a54.327,54.327,0,0,1,13.109,1.607,38.8,38.8,0,0,1,11.3,4.622l-5.123,12.255a40.973,40.973,0,0,0-9.745-4.068,36.992,36.992,0,0,0-9.644-1.356,23.231,23.231,0,0,0-7.735,1.055,8.962,8.962,0,0,0-4.27,2.863,6.54,6.54,0,0,0-1.356,4.018,5.43,5.43,0,0,0,2.21,4.521,16.192,16.192,0,0,0,5.826,2.662q3.617.957,8.037,1.909a89.118,89.118,0,0,1,8.741,2.361,39.022,39.022,0,0,1,7.936,3.566,16.362,16.362,0,0,1,8.137,14.919,19.215,19.215,0,0,1-3.265,10.849,22.755,22.755,0,0,1-9.895,7.937Q223.852,86.958,213.908,86.958Z"/><path class="a" d="M322.906,30.9a24.544,24.544,0,0,1,11.4,2.562,18.142,18.142,0,0,1,7.786,7.836q2.813,5.274,2.812,13.512V85.752H329.234V57.221q0-6.529-2.662-9.644a9.315,9.315,0,0,0-7.484-3.115,12.291,12.291,0,0,0-6.229,1.558,10.219,10.219,0,0,0-4.168,4.621,18.7,18.7,0,0,0-1.457,7.986V85.752H291.562V57.221q0-6.529-2.662-9.644t-7.685-3.115a12.087,12.087,0,0,0-6.129,1.558,10.52,10.52,0,0,0-4.219,4.621,18.178,18.178,0,0,0-1.506,7.986V85.752H253.689V31.7h14.968V46.371l-2.812-4.219a18.7,18.7,0,0,1,7.936-8.388A24.034,24.034,0,0,1,285.535,30.9a22.92,22.92,0,0,1,13.059,3.767q5.625,3.768,7.435,11.5L300.5,44.664a22.1,22.1,0,0,1,8.638-10A25.108,25.108,0,0,1,322.906,30.9Z"/><path class="a" d="M375.748,86.556A24.73,24.73,0,0,1,365,84.4a16.82,16.82,0,0,1-6.982-5.877,14.757,14.757,0,0,1-2.462-8.338A14.232,14.232,0,0,1,365.4,56.116q5.122-2.008,13.462-2.009h14.265v9.041H380.47q-5.526,0-7.584,1.809a5.764,5.764,0,0,0-2.06,4.521,5.634,5.634,0,0,0,2.36,4.771,10.445,10.445,0,0,0,6.38,1.758,14.226,14.226,0,0,0,7.183-1.808,9.88,9.88,0,0,0,4.471-5.525l2.411,7.333a14.225,14.225,0,0,1-6.229,7.786Q382.88,86.557,375.748,86.556Zm16.475-.8V75.2l-1-2.311V54.006a10.11,10.11,0,0,0-3.065-7.836q-3.066-2.811-9.393-2.813a27.283,27.283,0,0,0-8.489,1.357,23.786,23.786,0,0,0-7.182,3.666l-5.526-10.95a31.846,31.846,0,0,1,10.649-4.872A49.01,49.01,0,0,1,380.872,30.9q12.355,0,19.187,5.827t6.832,18.184V85.752Z"/><path class="a" d="M421.055,85.752V31.7h14.969V47.075l-2.11-4.521a17.36,17.36,0,0,1,7.735-8.69,26.3,26.3,0,0,1,12.96-2.964V45.467a17.832,17.832,0,0,0-1.758-.3,14.435,14.435,0,0,0-1.658-.1q-6.63,0-10.548,3.717t-3.918,11.453V85.752Z"/><path class="a" d="M459.43,44.965V32.91H496.9V44.965Zm28.532,41.591q-9.548,0-14.868-4.873t-5.326-14.516V19.749h15.773V66.865A7.565,7.565,0,0,0,485.3,72.19a6.165,6.165,0,0,0,4.772,1.909,10.229,10.229,0,0,0,6.43-2.01l4.118,11.051a16.089,16.089,0,0,1-5.676,2.562A28.341,28.341,0,0,1,487.962,86.556Z"/><path class="a" d="M224.356,165.093a42.105,42.105,0,0,1-15.12-2.662,35.108,35.108,0,0,1-20.092-19.138,38.49,38.49,0,0,1,0-29.134,34.847,34.847,0,0,1,8.037-11.553,36.073,36.073,0,0,1,12.156-7.584,44.649,44.649,0,0,1,31.7.5,32.14,32.14,0,0,1,12.457,9.292l-10.548,9.645a23.924,23.924,0,0,0-7.987-6.229,22.438,22.438,0,0,0-9.694-2.109,24.012,24.012,0,0,0-9.041,1.657,20.891,20.891,0,0,0-11.805,11.8,26.045,26.045,0,0,0,0,18.283,20.891,20.891,0,0,0,11.805,11.805,24.012,24.012,0,0,0,9.041,1.657,21.98,21.98,0,0,0,9.694-2.16,24.491,24.491,0,0,0,7.987-6.278l10.548,9.643a32.572,32.572,0,0,1-12.457,9.344A41.631,41.631,0,0,1,224.356,165.093Z"/><path class="a" d="M279.508,164.691a24.717,24.717,0,0,1-10.75-2.16,16.826,16.826,0,0,1-6.982-5.877,14.762,14.762,0,0,1-2.461-8.338,14.229,14.229,0,0,1,9.845-14.064q5.124-2.008,13.463-2.01h14.264v9.042H284.228q-5.524,0-7.584,1.809a5.764,5.764,0,0,0-2.058,4.52,5.633,5.633,0,0,0,2.359,4.772,10.446,10.446,0,0,0,6.381,1.758,14.223,14.223,0,0,0,7.182-1.808,9.878,9.878,0,0,0,4.47-5.525l2.412,7.333a14.224,14.224,0,0,1-6.228,7.786Q286.638,164.692,279.508,164.691Zm16.474-.8V153.339l-1-2.311V132.143a10.1,10.1,0,0,0-3.064-7.836q-3.065-2.812-9.393-2.814a27.233,27.233,0,0,0-8.488,1.357,23.8,23.8,0,0,0-7.184,3.667l-5.525-10.951a31.867,31.867,0,0,1,10.649-4.873,49.053,49.053,0,0,1,12.658-1.657q12.357,0,19.187,5.827t6.832,18.183v30.842Z"/><path class="a" d="M324.814,163.888V109.84h14.969v15.37l-2.11-4.521A17.362,17.362,0,0,1,345.408,112a26.3,26.3,0,0,1,12.96-2.964V123.6q-.9-.2-1.758-.3a14.212,14.212,0,0,0-1.658-.1q-6.63,0-10.548,3.717t-3.918,11.453v25.517Z"/><path class="a" d="M394.033,164.691a34.488,34.488,0,0,1-16.175-3.616,26.337,26.337,0,0,1-14.566-24.212,28.105,28.105,0,0,1,3.667-14.365,25.768,25.768,0,0,1,10.247-9.9,30.59,30.59,0,0,1,14.817-3.567,29.863,29.863,0,0,1,14.316,3.416,25.651,25.651,0,0,1,10.1,9.644,28.7,28.7,0,0,1,3.717,14.968q0,.9-.1,2.06t-.2,2.16h-43.9v-9.141h35.663l-6.128,2.711a14.319,14.319,0,0,0-1.607-7.333,12.489,12.489,0,0,0-4.722-4.873,13.724,13.724,0,0,0-7.032-1.757,13.992,13.992,0,0,0-7.082,1.757,12.281,12.281,0,0,0-4.773,4.923,15.537,15.537,0,0,0-1.708,7.485v2.411a14.815,14.815,0,0,0,2.01,7.836,13.243,13.243,0,0,0,5.525,5.073,18.688,18.688,0,0,0,8.439,1.758,20.029,20.029,0,0,0,7.484-1.306A18.47,18.47,0,0,0,408,146.91l8.338,9.041a24.291,24.291,0,0,1-9.343,6.48A34.573,34.573,0,0,1,394.033,164.691Z"/><path class="b" d="M82.994,168.569c-.684-.089-1.365-.22-2.052-.259a89.09,89.09,0,0,1-25.134-4.905A84.112,84.112,0,0,1,76.03.424,82.319,82.319,0,0,1,91.208.286a84.286,84.286,0,0,1,75.076,64.838,83.243,83.243,0,0,1,1.962,24.818,84.166,84.166,0,0,1-60.857,75.142A77.462,77.462,0,0,1,93.233,167.8c-2.2.2-4.4.357-6.592.549-.4.035-.8.142-1.194.217ZM116.306,94.91c0,1.052.01,1.906,0,2.759a11.739,11.739,0,0,1-.085,1.711,9.065,9.065,0,0,1-13.472,6.551,1.589,1.589,0,0,0-1.877.078c-1.244.781-2.53,1.5-3.823,2.2q-13.69,7.392-27.389,14.764c-1.8.968-3.6,1.926-5.384,2.92a12.305,12.305,0,0,0-4.276,3.6,4.333,4.333,0,0,0,.488,5.992,11.11,11.11,0,0,0,1.01.891q2.573,2.082,5.157,4.151c1.531,1.225,3.05,2.467,4.614,3.65a26.569,26.569,0,0,0,6.018,3.5,12.927,12.927,0,0,0,11.565-.6,31.516,31.516,0,0,0,3.1-1.971,295.57,295.57,0,0,0,37.439-31.775c1.3-1.294,2.563-2.641,3.738-4.051A87.639,87.639,0,0,0,143.061,94.3a50.9,50.9,0,0,0,6.018-28.468,37.432,37.432,0,0,0-3.218-12.879,30.277,30.277,0,0,0-13.944-14.938,28.22,28.22,0,0,0-17.631-2.6A25.629,25.629,0,0,0,99.391,43a58.529,58.529,0,0,0-6.747,8.238q-4.127,6.3-8.225,12.627A103.713,103.713,0,0,1,76,75.309a30.719,30.719,0,0,1-6.941,6.166A22.175,22.175,0,0,1,54.58,84.93a11.484,11.484,0,0,1-7.436-3.643A15.328,15.328,0,0,1,43.507,66.7a12.738,12.738,0,0,1,10.46-10.012A13.93,13.93,0,0,1,68.4,62.111a14.815,14.815,0,0,0,1.158,1.416,6.834,6.834,0,0,0,8.174.623A19.3,19.3,0,0,0,79.8,62.43a38.892,38.892,0,0,0,6.49-8.725,6.083,6.083,0,0,0-.778-7.487c-.445-.479-.864-.982-1.317-1.453a39.857,39.857,0,0,0-38.9-10.5,30.456,30.456,0,0,0-15.565,9.509c-8.19,9.718-11.8,20.95-10.115,33.667a34.782,34.782,0,0,0,9.85,20.106c7.089,7.286,15.983,10.292,25.913,10.773a46.505,46.505,0,0,0,8.99-.952,32.587,32.587,0,0,0,17.915-8.63,44.415,44.415,0,0,0,5.862-6.793c-.286-.413-.544-.775-.79-1.144a9.032,9.032,0,0,1,5.453-13.852,19.977,19.977,0,0,1,3.648-.257c1.239-.05,1.59-.351,1.658-1.593.049-.9.033-1.8.1-2.692a8.972,8.972,0,0,1,10.948-7.82,5.908,5.908,0,0,0,2.395,0,14.182,14.182,0,0,1,8.076.373A7.232,7.232,0,0,1,123.358,68a10.349,10.349,0,0,1,1.581,7.253c-.15.92-.3,1.84-.448,2.72a.665.665,0,0,0,.088.148c.247.213.5.417.747.633a8.767,8.767,0,0,1,3.027,9.031,8.6,8.6,0,0,1-6.8,6.793,19.514,19.514,0,0,1-3.409.233C117.586,94.842,117.026,94.871,116.306,94.91ZM102.05,90.987v1.375c0,1.96-.028,3.921.016,5.88a5.046,5.046,0,0,0,3.4,4.65,4.994,4.994,0,0,0,5.505-1.306,5.331,5.331,0,0,0,1.459-3.911c.008-1.8,0-3.593.008-5.39,0-.429.059-.858.095-1.358h1.475c1.88,0,3.761.041,5.64-.013a5.176,5.176,0,0,0,4.832-6.686,5.29,5.29,0,0,0-5.111-3.67c-1.839-.032-3.678,0-5.517-.011-.433,0-.866-.046-1.418-.076,0-.689,0-1.253,0-1.817,0-1.715.049-3.432-.019-5.144a5.19,5.19,0,1,0-10.375.184c.076,1.834.018,3.674.011,5.511,0,.4-.04.8-.07,1.345H100.59c-1.88,0-3.761-.041-5.639.014a5.18,5.18,0,1,0,.1,10.358c1.88.021,3.76,0,5.639.007C101.094,90.931,101.493,90.962,102.05,90.987Z"/></svg>