<svg width="150" height="150" viewBox="0 0 150 150" fill="none" xmlns="http://www.w3.org/2000/svg">
<path d="M144.397 65.3946H144.356C143.638 65.4132 142.949 65.6784 142.404 66.1457C141.858 66.6129 141.491 67.2537 141.362 67.9602L130.194 67.0571C129.623 61.5897 128.217 56.2422 126.025 51.2008L133.8 45.1446C134.264 45.6929 134.904 46.0644 135.61 46.1965C136.317 46.3285 137.047 46.2131 137.678 45.8696L137.712 45.8508C138.439 45.407 138.959 44.693 139.16 43.8657C139.36 43.0384 139.224 42.1653 138.781 41.4383L134.719 34.4008C134.517 34.0308 134.244 33.7042 133.915 33.4397C133.587 33.1752 133.21 32.9779 132.805 32.8592C132.401 32.7405 131.977 32.7027 131.558 32.7479C131.139 32.7931 130.732 32.9205 130.362 33.1227L130.328 33.1446C129.716 33.5197 129.251 34.0942 129.013 34.7714C128.774 35.4487 128.776 36.1874 129.019 36.8633L119.859 40.579C117.161 36.8986 114.011 33.5715 110.484 30.6758L119.269 13.2446C119.945 13.4868 120.683 13.4888 121.361 13.2503C122.038 13.0119 122.612 12.5475 122.987 11.9352L123.006 11.9008C123.208 11.5309 123.336 11.1247 123.381 10.7056C123.426 10.2864 123.388 9.86245 123.27 9.4579C123.151 9.05336 122.954 8.67617 122.689 8.34787C122.425 8.01958 122.098 7.74662 121.728 7.54458L114.687 3.48208C113.961 3.03968 113.088 2.90408 112.261 3.10508C111.434 3.30608 110.721 3.82724 110.278 4.55396L110.256 4.58833C109.914 5.21923 109.799 5.94887 109.931 6.65458C110.063 7.36028 110.434 7.999 110.981 8.46333L100.134 24.0883C94.6534 21.3852 88.7525 19.6342 82.6843 18.9102L81.3218 9.15708C82.0283 9.02879 82.6691 8.66111 83.1363 8.11588C83.6036 7.57065 83.8688 6.88115 83.8874 6.16333V6.12583C83.8645 5.27649 83.506 4.47083 82.8905 3.88515C82.275 3.29948 81.4525 2.98151 80.603 3.00083H72.4781C71.6286 2.98151 70.8061 3.29948 70.1906 3.88515C69.5751 4.47083 69.2166 5.27649 69.1937 6.12583V6.16333C69.2123 6.88115 69.4775 7.57065 69.9448 8.11588C70.412 8.66111 71.0528 9.02879 71.7593 9.15708L70.4156 18.8258C64.4366 19.4764 58.6095 21.1275 53.1781 23.7102L45.7749 12.3477C46.3225 11.8834 46.6935 11.2447 46.8256 10.539C46.9576 9.83325 46.8426 9.1036 46.4999 8.47271L46.4781 8.43833C46.0353 7.71161 45.3222 7.19046 44.4953 6.98945C43.6684 6.78845 42.7956 6.92406 42.0687 7.36646L35.0312 11.429C34.6609 11.6307 34.334 11.9035 34.0691 12.2317C33.8043 12.5598 33.6068 12.937 33.4878 13.3416C33.3688 13.7461 33.3307 14.1702 33.3757 14.5895C33.4207 15.0088 33.5478 15.4151 33.7499 15.7852L33.7687 15.8196C34.1443 16.4346 34.7209 16.9009 35.4009 17.1395C36.0808 17.3781 36.8224 17.3744 37.4999 17.129L43.3031 29.7321C39.372 32.7499 35.871 36.2898 32.8968 40.254L23.9156 36.6133C24.1577 35.9374 24.1598 35.1987 23.9213 34.5214C23.6828 33.8442 23.2184 33.2697 22.6062 32.8946L22.5718 32.8758C22.2019 32.6736 21.7957 32.5463 21.3766 32.5011C20.9574 32.4558 20.5334 32.4937 20.1289 32.6124C19.7243 32.7311 19.3471 32.9283 19.0188 33.1928C18.6905 33.4573 18.4176 33.7839 18.2156 34.154L14.1531 41.1915C13.7107 41.9184 13.575 42.7912 13.7761 43.6181C13.9771 44.4449 14.4982 45.1581 15.2249 45.6008L15.2593 45.6227C15.8902 45.9654 16.6198 46.0804 17.3255 45.9483C18.0313 45.8163 18.67 45.4453 19.1343 44.8977L26.6843 50.7758C24.4293 55.8422 22.9704 61.2265 22.3593 66.7383L15.6249 67.6758C15.4965 66.9688 15.1284 66.3277 14.5825 65.8603C14.0367 65.393 13.3464 65.1281 12.6281 65.1102H12.5906C11.7409 65.1323 10.9348 65.4905 10.3489 66.1062C9.7631 66.722 9.4454 67.5449 9.46555 68.3946V76.5196C9.4454 77.3692 9.7631 78.1922 10.3489 78.8079C10.9348 79.4236 11.7409 79.7819 12.5906 79.804H12.6281C13.3464 79.7861 14.0367 79.5211 14.5825 79.0538C15.1284 78.5865 15.4965 77.9453 15.6249 77.2383L22.2843 78.1758C22.816 83.5803 24.1614 88.8734 26.2749 93.8758L13.8562 102.938C13.3917 102.39 12.7524 102.019 12.046 101.886C11.3396 101.754 10.6093 101.87 9.97805 102.213L9.94368 102.235C9.21748 102.678 8.69698 103.392 8.49657 104.219C8.29617 105.046 8.43225 105.918 8.87493 106.645L12.9374 113.682C13.1395 114.052 13.4124 114.379 13.7407 114.643C14.069 114.908 14.4462 115.105 14.8508 115.224C15.2553 115.342 15.6793 115.38 16.0984 115.335C16.5176 115.29 16.9237 115.162 17.2937 114.96L17.3281 114.941C17.9403 114.566 18.4047 113.992 18.6432 113.315C18.8816 112.637 18.8796 111.899 18.6374 111.223L32.2437 104.376C35.5202 108.926 39.4805 112.942 43.9843 116.282L40.4093 125.088C39.733 124.846 38.994 124.845 38.3168 125.084C37.6395 125.323 37.0652 125.788 36.6906 126.401L36.6718 126.435C36.2641 127.182 36.1694 128.059 36.4085 128.876C36.6476 129.692 37.2008 130.38 37.9468 130.788L44.9874 134.851C45.7145 135.292 46.5871 135.428 47.4137 135.227C48.2404 135.026 48.9535 134.505 49.3968 133.779L49.4156 133.745C49.7582 133.114 49.8732 132.384 49.7412 131.678C49.6091 130.973 49.2381 130.334 48.6906 129.87L54.4937 122.42C59.5142 124.626 64.8423 126.053 70.2937 126.651L71.4718 140.851C70.7653 140.979 70.1245 141.347 69.6573 141.892C69.19 142.437 68.9248 143.127 68.9062 143.845V143.882C68.9283 144.731 69.2861 145.537 69.9011 146.123C70.5161 146.708 71.3383 147.026 72.1874 147.007H80.3124C81.1621 147.027 81.985 146.71 82.6008 146.124C83.2165 145.538 83.5747 144.732 83.5968 143.882V143.845C83.5782 143.127 83.313 142.437 82.8457 141.892C82.3784 141.347 81.7377 140.979 81.0312 140.851L82.2093 126.651C88.1298 125.992 93.8998 124.355 99.2843 121.807L103.097 126.701C102.533 127.18 102.151 127.839 102.015 128.567C101.879 129.295 101.997 130.047 102.35 130.698L102.369 130.735C102.827 131.484 103.563 132.02 104.416 132.227C105.269 132.434 106.169 132.294 106.919 131.838L114.175 127.648C114.556 127.439 114.893 127.158 115.166 126.82C115.439 126.481 115.642 126.093 115.764 125.676C115.887 125.259 115.926 124.822 115.88 124.389C115.833 123.957 115.702 123.539 115.494 123.157L115.472 123.123C115.085 122.492 114.493 122.013 113.794 121.767C113.096 121.52 112.335 121.521 111.637 121.77L109.203 115.766C113.239 112.669 116.82 109.021 119.844 104.929L128.872 108.591C128.629 109.268 128.627 110.008 128.866 110.686C129.105 111.364 129.571 111.939 130.184 112.313L130.219 112.332C130.588 112.534 130.994 112.662 131.413 112.707C131.832 112.752 132.256 112.714 132.66 112.595C133.064 112.477 133.441 112.279 133.769 112.015C134.097 111.75 134.37 111.424 134.572 111.054L138.634 104.016C139.076 103.289 139.211 102.416 139.01 101.589C138.809 100.762 138.289 100.048 137.562 99.604L137.528 99.5852C136.897 99.2417 136.167 99.1263 135.46 99.2583C134.754 99.3904 134.114 99.7619 133.65 100.31L125.994 94.3477C128.201 89.2911 129.619 83.9254 130.197 78.4383L141.362 77.5352C141.491 78.2417 141.858 78.8825 142.404 79.3497C142.949 79.817 143.638 80.0822 144.356 80.1008H144.397C145.246 80.0787 146.052 79.7209 146.637 79.1059C147.223 78.4909 147.541 77.6687 147.522 76.8196V68.6946C147.534 68.2726 147.463 67.8523 147.312 67.4579C147.161 67.0635 146.934 66.7027 146.644 66.3961C146.354 66.0896 146.006 65.8433 145.62 65.6715C145.235 65.4996 144.819 65.4055 144.397 65.3946Z" fill="#EDEDED" stroke="#1D1D1B" stroke-miterlimit="10"/>
<path d="M72.8531 48.6633C78.0187 48.6633 82.2062 44.4757 82.2062 39.3102C82.2062 34.1446 78.0187 29.957 72.8531 29.957C67.6875 29.957 63.5 34.1446 63.5 39.3102C63.5 44.4757 67.6875 48.6633 72.8531 48.6633Z" fill="#EDEDED" stroke="#1D1D1B" stroke-miterlimit="10"/>
<path d="M104.445 62.5512C108.097 62.5512 111.057 59.5907 111.057 55.9387C111.057 52.2867 108.097 49.3262 104.445 49.3262C100.793 49.3262 97.832 52.2867 97.832 55.9387C97.832 59.5907 100.793 62.5512 104.445 62.5512Z" fill="#EDEDED" stroke="#1D1D1B" stroke-miterlimit="10"/>
<path d="M104.443 101.032C109.609 101.032 113.796 96.8449 113.796 91.6793C113.796 86.5137 109.609 82.3262 104.443 82.3262C99.2774 82.3262 95.0898 86.5137 95.0898 91.6793C95.0898 96.8449 99.2774 101.032 104.443 101.032Z" fill="#EDEDED" stroke="#1D1D1B" stroke-miterlimit="10"/>
<path d="M75.682 109.307C77.2819 109.307 78.5789 108.01 78.5789 106.411C78.5789 104.811 77.2819 103.514 75.682 103.514C74.0821 103.514 72.7852 104.811 72.7852 106.411C72.7852 108.01 74.0821 109.307 75.682 109.307Z" fill="#EDEDED" stroke="#1D1D1B" stroke-miterlimit="10"/>
<path d="M51.4188 96.6539C60.547 96.6539 67.9469 89.254 67.9469 80.1258C67.9469 70.9975 60.547 63.5977 51.4188 63.5977C42.2905 63.5977 34.8906 70.9975 34.8906 80.1258C34.8906 89.254 42.2905 96.6539 51.4188 96.6539Z" fill="#EDEDED" stroke="#1D1D1B" stroke-miterlimit="10"/>
</svg>
