<svg width="150" height="150" viewBox="0 0 150 150" fill="none" xmlns="http://www.w3.org/2000/svg">
<g clip-path="url(#clip0_2564_15758)">
<path d="M127.686 13.4538L127.684 13.4518C116.832 4.37543 100.677 5.81466 91.6009 16.6664L23.3198 98.3036C14.2435 109.155 15.6827 125.31 26.5344 134.387L26.5368 134.389C37.3886 143.465 53.5435 142.026 62.6199 131.174L130.901 49.5369C139.977 38.6851 138.538 22.5302 127.686 13.4538Z" fill="#EDEDED" stroke="#333333" stroke-miterlimit="10"/>
<path d="M106.827 78.3216L67.5273 45.4512L47.3941 69.5226L86.6941 102.393L106.827 78.3216Z" fill="#EDEDED" stroke="#333333" stroke-miterlimit="10"/>
<path d="M119.131 26.6375C120.766 26.6375 122.091 25.3125 122.091 23.6781C122.091 22.0437 120.766 20.7188 119.131 20.7188C117.497 20.7188 116.172 22.0437 116.172 23.6781C116.172 25.3125 117.497 26.6375 119.131 26.6375Z" fill="#EDEDED" stroke="#333333" stroke-width="0.8" stroke-miterlimit="10"/>
<path d="M103.651 28.6121C105.285 28.6121 106.61 27.2872 106.61 25.6527C106.61 24.0183 105.285 22.6934 103.651 22.6934C102.016 22.6934 100.691 24.0183 100.691 25.6527C100.691 27.2872 102.016 28.6121 103.651 28.6121Z" fill="#EDEDED" stroke="#333333" stroke-width="0.8" stroke-miterlimit="10"/>
<path d="M120.178 44.2723C121.813 44.2723 123.138 42.9473 123.138 41.3129C123.138 39.6785 121.813 38.3535 120.178 38.3535C118.544 38.3535 117.219 39.6785 117.219 41.3129C117.219 42.9473 118.544 44.2723 120.178 44.2723Z" fill="#EDEDED" stroke="#333333" stroke-width="0.8" stroke-miterlimit="10"/>
<path d="M87.8852 45.2215C89.5196 45.2215 90.8445 43.8965 90.8445 42.2621C90.8445 40.6277 89.5196 39.3027 87.8852 39.3027C86.2507 39.3027 84.9258 40.6277 84.9258 42.2621C84.9258 43.8965 86.2507 45.2215 87.8852 45.2215Z" fill="#EDEDED" stroke="#333333" stroke-width="0.8" stroke-miterlimit="10"/>
<path d="M104.518 62.991C106.152 62.991 107.477 61.6661 107.477 60.0316C107.477 58.3972 106.152 57.0723 104.518 57.0723C102.884 57.0723 101.559 58.3972 101.559 60.0316C101.559 61.6661 102.884 62.991 104.518 62.991Z" fill="#EDEDED" stroke="#333333" stroke-width="0.8" stroke-miterlimit="10"/>
<path d="M105.041 44.1395C106.676 44.1395 108.001 42.8145 108.001 41.1801C108.001 39.5457 106.676 38.2207 105.041 38.2207C103.407 38.2207 102.082 39.5457 102.082 41.1801C102.082 42.8145 103.407 44.1395 105.041 44.1395Z" fill="#EDEDED" stroke="#333333" stroke-width="0.8" stroke-miterlimit="10"/>
<path d="M36.5727 125.294C38.2071 125.294 39.532 123.969 39.532 122.334C39.532 120.7 38.2071 119.375 36.5727 119.375C34.9382 119.375 33.6133 120.7 33.6133 122.334C33.6133 123.969 34.9382 125.294 36.5727 125.294Z" fill="#EDEDED" stroke="#333333" stroke-width="0.8" stroke-miterlimit="10"/>
<path d="M35.7758 109.712C37.4102 109.712 38.7352 108.387 38.7352 106.752C38.7352 105.118 37.4102 103.793 35.7758 103.793C34.1414 103.793 32.8164 105.118 32.8164 106.752C32.8164 108.387 34.1414 109.712 35.7758 109.712Z" fill="#EDEDED" stroke="#333333" stroke-width="0.8" stroke-miterlimit="10"/>
<path d="M54.1117 123.206C55.7461 123.206 57.0711 121.881 57.0711 120.246C57.0711 118.612 55.7461 117.287 54.1117 117.287C52.4773 117.287 51.1523 118.612 51.1523 120.246C51.1523 121.881 52.4773 123.206 54.1117 123.206Z" fill="#EDEDED" stroke="#333333" stroke-width="0.8" stroke-miterlimit="10"/>
<path d="M49.3383 91.2566C50.9727 91.2566 52.2977 89.9317 52.2977 88.2973C52.2977 86.6628 50.9727 85.3379 49.3383 85.3379C47.7039 85.3379 46.3789 86.6628 46.3789 88.2973C46.3789 89.9317 47.7039 91.2566 49.3383 91.2566Z" fill="#EDEDED" stroke="#333333" stroke-width="0.8" stroke-miterlimit="10"/>
<path d="M69.768 104.487C71.4024 104.487 72.7273 103.162 72.7273 101.528C72.7273 99.8933 71.4024 98.5684 69.768 98.5684C68.1336 98.5684 66.8086 99.8933 66.8086 101.528C66.8086 103.162 68.1336 104.487 69.768 104.487Z" fill="#EDEDED" stroke="#333333" stroke-width="0.8" stroke-miterlimit="10"/>
<path d="M51.307 108.335C52.9414 108.335 54.2664 107.01 54.2664 105.375C54.2664 103.741 52.9414 102.416 51.307 102.416C49.6726 102.416 48.3477 103.741 48.3477 105.375C48.3477 107.01 49.6726 108.335 51.307 108.335Z" fill="#EDEDED" stroke="#333333" stroke-width="0.8" stroke-miterlimit="10"/>
</g>
<defs>
<clipPath id="clip0_2564_15758">
<rect width="150" height="150" fill="white"/>
</clipPath>
</defs>
</svg>
