<svg width="150" height="150" viewBox="0 0 150 150" fill="none" xmlns="http://www.w3.org/2000/svg">
<path d="M73.8553 145.312C61.949 143.85 49.6021 135.472 39.9146 123.168C22.3593 100.492 12.934 72.5735 13.1521 43.8965V22.5527C13.1528 21.6635 13.392 20.7907 13.8449 20.0254C14.2979 19.2602 14.9479 18.6305 15.7271 18.2021C16.5064 17.7736 17.3863 17.5622 18.2751 17.5898C19.164 17.6174 20.0291 17.883 20.7803 18.359L25.3521 21.2496C30.3832 24.4393 36.3731 25.7646 42.2802 24.995C48.1872 24.2254 53.6376 21.4095 57.6834 17.0371L70.1834 3.52775C71.2704 2.90051 72.5034 2.57031 73.7584 2.57031C75.0134 2.57031 76.2463 2.90051 77.3334 3.52775L89.8584 17.059C93.8978 21.4282 99.3381 24.2469 105.237 25.0271C111.136 25.8073 117.122 24.4997 122.158 21.3309L126.724 18.459C127.497 17.9723 128.387 17.7019 129.3 17.6757C130.213 17.6496 131.116 17.8688 131.916 18.3104C132.716 18.752 133.382 19.4 133.847 20.1868C134.311 20.9736 134.555 21.8705 134.555 22.784V43.8965C134.77 72.5681 125.345 100.48 107.793 123.153C98.1053 135.456 86.6146 144.062 73.8553 145.312Z" fill="#EDEDED" stroke="#333333" stroke-miterlimit="10"/>
<path d="M98.0398 64.7031H83.0867V49.75H64.6211V64.7031H49.668V83.1688H64.6211V98.125H83.0867V83.1688H98.0398V64.7031Z" fill="#908F90"/>
</svg>
